<?xml version="1.0" standalone="no"?>
<!DOCTYPE svg PUBLIC "-//W3C//DTD SVG 20010904//EN"
 "http://www.w3.org/TR/2001/REC-SVG-20010904/DTD/svg10.dtd">
<svg version="1.0" xmlns="http://www.w3.org/2000/svg"
 width="563.000000pt" height="270.000000pt" viewBox="0 0 563.000000 270.000000"
 preserveAspectRatio="xMidYMid meet">

<g transform="translate(0.000000,270.000000) scale(0.100000,-0.100000)"
fill="#000000" stroke="none">
<path d="M0 1350 l0 -1350 2815 0 2815 0 0 1350 0 1350 -2815 0 -2815 0 0
-1350z m1539 847 c143 -194 264 -364 270 -377 10 -25 219 -967 242 -1092 7
-38 11 -70 8 -72 -2 -2 -85 -55 -184 -118 -384 -243 -603 -378 -615 -378 -7 0
-40 17 -74 37 -61 37 -717 453 -725 459 -4 4 249 1055 274 1141 13 42 517 753
535 753 5 0 125 -159 269 -353z m1583 38 c85 -18 188 -66 239 -112 148 -133
177 -429 61 -610 -66 -103 -170 -176 -305 -214 -70 -20 -104 -24 -229 -23
l-148 0 -2 -335 -3 -336 -65 0 -65 0 -3 806 -2 807 92 15 c122 20 343 21 430
2z m1050 -473 c69 -34 124 -87 152 -146 44 -93 48 -137 56 -556 5 -223 11
-415 15 -427 7 -22 5 -23 -59 -23 l-66 0 0 38 c0 50 -10 82 -24 82 -7 0 -28
-16 -47 -36 -104 -109 -318 -146 -454 -80 -103 51 -155 121 -175 238 -22 127
19 249 112 333 105 95 295 153 512 155 l49 0 -6 74 c-7 92 -38 167 -88 210
-49 41 -98 56 -185 56 -81 0 -149 -17 -221 -53 -29 -15 -56 -27 -60 -27 -9 0
-43 78 -43 97 0 15 109 68 180 88 37 10 92 14 170 12 108 -2 120 -4 182 -35z
m505 6 c10 -13 286 -708 339 -852 16 -44 34 -81 39 -83 6 -2 32 61 59 139 26
79 72 208 101 288 29 80 67 186 85 235 18 50 48 134 68 188 l36 97 68 0 c37 0
68 -2 68 -5 0 -6 -8 -28 -149 -390 -66 -170 -159 -411 -206 -535 -145 -376
-225 -522 -351 -640 -42 -39 -97 -78 -138 -98 -37 -18 -69 -32 -71 -30 -4 5
-45 96 -45 102 0 2 33 22 73 45 80 45 110 71 178 151 59 72 102 142 128 216
l21 59 -39 100 c-64 165 -331 828 -341 850 -5 11 -23 55 -39 98 l-29 77 68 0
c42 0 71 -5 77 -12z"/>
<path d="M1020 2188 c-289 -399 -262 -353 -246 -413 36 -136 111 -355 121
-355 7 0 92 133 189 296 l176 297 0 243 c0 134 -3 244 -7 244 -5 -1 -109 -141
-233 -312z m-72 -250 c-2 -21 -8 -33 -18 -33 -9 0 -15 11 -16 33 -1 26 2 32
18 32 16 0 19 -6 16 -32z m32 -138 c0 -5 -4 -10 -10 -10 -5 0 -10 5 -10 10 0
6 5 10 10 10 6 0 10 -4 10 -10z"/>
<path d="M1274 2258 l3 -243 179 -304 c98 -168 184 -306 189 -308 9 -3 145
387 145 416 0 6 -82 121 -182 255 -101 134 -212 283 -248 332 -36 48 -70 89
-77 91 -8 3 -11 -58 -9 -239z m373 -318 c-1 -17 -5 -30 -10 -30 -4 0 -12 0
-17 0 -6 0 -9 14 -8 30 2 21 7 30 20 30 14 0 17 -7 15 -30z m-47 -140 c0 -5
-4 -10 -10 -10 -5 0 -10 5 -10 10 0 6 5 10 10 10 6 0 10 -4 10 -10z"/>
<path d="M1102 1723 c-87 -147 -169 -286 -182 -309 l-23 -40 66 -210 c36 -115
82 -265 103 -334 20 -69 41 -133 46 -143 8 -16 24 -17 155 -15 l146 3 116 346
115 346 -181 309 c-99 169 -185 310 -191 312 -6 2 -82 -117 -170 -265z m-36
-548 c21 -20 24 -28 15 -39 -9 -11 -9 -15 0 -18 20 -7 22 -79 3 -93 -12 -8
-14 -14 -5 -19 8 -5 8 -13 -1 -29 -6 -12 -11 -23 -10 -24 1 -2 2 -8 2 -15 0
-28 -29 21 -48 82 -35 112 -36 124 -8 139 14 8 22 19 19 27 -8 21 3 17 33 -11z
m68 -66 c-3 -5 -10 -7 -15 -3 -5 3 -7 10 -3 15 3 5 10 7 15 3 5 -3 7 -10 3
-15z m8 -124 c12 -13 -5 -55 -23 -55 -23 0 -29 11 -22 38 5 20 32 30 45 17z
m-28 -88 c11 -8 15 -19 10 -30 -6 -17 -8 -17 -25 2 -32 34 -21 55 15 28z m236
-3 c0 -8 -4 -12 -10 -9 -5 3 -10 10 -10 16 0 5 5 9 10 9 6 0 10 -7 10 -16z"/>
<path d="M748 1775 c-3 -3 -2 -25 2 -48 9 -46 6 -57 -15 -57 -7 0 -17 -10 -21
-22 -22 -67 -220 -884 -216 -892 7 -13 16 0 208 326 l176 298 -62 197 c-34
109 -63 199 -64 201 -2 1 -5 0 -8 -3z m19 -241 c5 -14 -11 -33 -28 -34 -12 0
-17 39 -5 44 20 8 27 6 33 -10z m51 -163 c30 -25 28 -41 -13 -88 -19 -23 -35
-46 -35 -53 0 -7 -14 -10 -37 -8 -35 3 -38 6 -41 35 -3 32 15 70 52 110 26 27
47 28 74 4z"/>
<path d="M1788 1745 c-8 -17 -41 -108 -73 -203 l-57 -172 83 -143 c78 -134
269 -457 276 -466 19 -25 0 79 -91 490 -59 265 -111 491 -115 502 -8 21 -9 20
-23 -8z m22 -57 c0 -16 -3 -19 -11 -11 -6 6 -8 16 -5 22 11 17 16 13 16 -11z
m-1 -147 c18 -12 6 -42 -14 -35 -8 3 -15 15 -15 25 0 21 8 23 29 10z m-12
-107 c-3 -3 -12 -4 -19 -1 -8 3 -5 6 6 6 11 1 17 -2 13 -5z m14 -74 c16 -16
29 -37 29 -45 0 -8 4 -15 9 -15 13 0 11 -63 -3 -72 -20 -14 -76 -9 -76 6 0 8
-16 30 -35 49 -35 35 -47 77 -21 77 8 0 16 7 20 15 9 24 47 17 77 -15z"/>
<path d="M852 1298 c-49 -73 -354 -589 -359 -609 -5 -18 5 -19 296 -19 285 0
301 1 301 18 0 17 -165 562 -189 625 -6 15 -13 27 -15 27 -3 0 -18 -19 -34
-42z"/>
<path d="M1640 1305 c-35 -86 -209 -619 -204 -626 8 -13 591 -11 599 1 6 10
-315 566 -362 627 l-21 28 -12 -30z"/>
<path d="M572 652 c-33 -2 -52 -7 -50 -14 2 -6 121 -84 263 -174 379 -238 443
-276 453 -273 8 3 -118 443 -129 453 -6 5 -473 12 -537 8z m436 -189 c2 -13
-1 -23 -6 -23 -6 0 -16 -2 -24 -5 -7 -3 -19 -1 -26 4 -12 7 -12 12 0 30 17 28
52 24 56 -6z m-43 -56 c6 -12 24 -28 40 -36 32 -15 59 -44 45 -49 -11 -4 -161
88 -156 96 2 4 17 8 33 9 21 1 31 -4 38 -20z m255 -188 c0 -6 -4 -7 -10 -4 -5
3 -10 11 -10 16 0 6 5 7 10 4 6 -3 10 -11 10 -16z"/>
<path d="M1148 653 c-10 -2 -18 -12 -18 -21 1 -31 116 -386 127 -389 6 -2 37
75 71 174 82 239 81 229 41 237 -35 7 -194 6 -221 -1z"/>
<path d="M1423 648 c-16 -19 -158 -456 -151 -463 6 -6 75 36 448 270 270 169
290 183 290 196 0 15 -575 12 -587 -3z m156 -179 c11 -18 11 -23 -1 -30 -7 -5
-19 -7 -26 -4 -8 3 -18 5 -23 5 -10 0 -12 33 -2 43 13 14 39 6 52 -14z m51
-50 c0 -8 -150 -102 -155 -97 -7 7 22 36 50 49 17 8 34 24 40 36 6 15 18 21
37 21 15 -1 28 -5 28 -9z m-305 -198 c-3 -6 -11 -8 -17 -5 -6 4 -5 9 3 15 16
10 23 4 14 -10z"/>
<path d="M2810 2121 c-30 -3 -61 -10 -67 -14 -15 -9 -17 -250 -6 -530 l6 -166
41 -7 c74 -13 221 -7 296 11 150 37 248 139 270 280 35 223 -65 375 -279 421
-67 14 -163 16 -261 5z"/>
<path d="M4065 1214 c-199 -23 -328 -106 -356 -229 -24 -107 16 -210 102 -260
27 -16 51 -20 119 -20 73 1 93 5 143 30 139 69 190 187 172 399 l-7 86 -71 -1
c-40 -1 -85 -4 -102 -5z"/>
</g>
</svg>
